<svg id="svg" version="1.1" xmlns="http://www.w3.org/2000/svg" xmlns:xlink="http://www.w3.org/1999/xlink" width="400" height="96.50000000000001" viewBox="0, 0, 400,96.50000000000001"><g id="svgg"><path id="path0" d="M50.631 6.531 C 50.766 6.666,57.427 8.500,57.781 8.500 C 58.343 8.500,57.851 8.872,56.130 9.746 C 46.893 14.444,39.022 24.186,36.602 33.917 C 32.524 50.312,39.947 63.933,53.853 65.575 L 54.789 65.685 54.902 67.634 C 55.516 78.262,55.735 80.639,56.111 80.784 C 56.584 80.965,56.525 81.682,56.993 70.114 C 57.188 65.288,57.048 65.722,58.460 65.578 C 68.984 64.499,77.094 56.035,77.059 46.167 C 77.020 35.398,69.941 26.967,59.801 25.614 L 58.250 25.407 58.206 24.662 C 58.135 23.464,58.024 23.188,57.506 22.920 C 56.787 22.548,55.814 22.601,55.150 23.048 L 54.583 23.429 54.449 26.173 C 54.304 29.132,54.430 56.369,54.607 60.311 L 54.715 62.705 53.816 62.587 C 41.697 61.004,35.566 48.285,39.814 33.540 C 42.020 25.886,47.384 18.943,55.000 13.886 C 55.688 13.430,57.105 12.480,58.150 11.776 C 59.196 11.072,61.014 9.920,62.192 9.216 C 63.370 8.512,64.333 7.880,64.333 7.812 C 64.333 7.632,61.078 7.279,53.750 6.663 C 50.717 6.408,50.499 6.399,50.631 6.531 M56.801 24.708 C 56.851 25.491,56.846 25.500,56.342 25.500 C 55.853 25.500,55.833 25.472,55.833 24.778 C 55.833 23.456,56.716 23.393,56.801 24.708 M56.800 26.625 L 56.851 27.500 56.342 27.500 C 55.836 27.500,55.833 27.496,55.833 26.572 C 55.833 25.172,56.719 25.220,56.800 26.625 M60.417 26.683 C 65.045 28.267,68.159 30.936,71.113 35.849 C 76.843 45.376,74.089 55.937,64.640 60.680 C 62.219 61.895,57.319 63.156,57.338 62.559 C 57.340 62.481,57.456 59.079,57.596 55.000 C 58.033 42.237,58.145 37.594,58.156 31.792 L 58.167 26.167 58.542 26.168 C 58.748 26.169,59.592 26.400,60.417 26.683 M101.577 28.874 C 101.533 28.989,101.517 38.346,101.540 49.667 L 101.583 70.250 103.625 70.297 L 105.667 70.344 105.667 60.172 L 105.667 50.000 114.083 50.000 L 122.500 50.000 122.500 47.918 L 122.500 45.836 114.125 45.793 L 105.750 45.750 105.750 39.333 L 105.750 32.917 114.130 32.873 L 122.510 32.830 122.463 30.790 L 122.417 28.750 112.037 28.707 C 103.822 28.673,101.641 28.708,101.577 28.874 M140.616 28.773 C 140.552 28.837,140.500 38.214,140.500 49.611 L 140.500 70.333 142.584 70.333 L 144.668 70.333 144.626 49.542 L 144.583 28.750 142.658 28.703 C 141.599 28.678,140.680 28.709,140.616 28.773 M163.790 28.765 C 163.736 28.820,164.412 30.038,165.293 31.474 C 166.174 32.909,167.675 35.358,168.627 36.917 C 169.580 38.475,170.532 40.012,170.744 40.333 C 171.742 41.842,175.833 48.686,175.833 48.845 C 175.833 49.008,169.293 59.770,167.333 62.833 C 166.019 64.888,162.983 69.852,162.885 70.106 C 162.809 70.305,163.186 70.335,165.260 70.296 L 167.725 70.250 169.266 67.750 C 170.114 66.375,171.478 64.162,172.298 62.833 C 173.117 61.504,174.717 58.906,175.852 57.059 C 176.988 55.212,178.036 53.529,178.182 53.317 L 178.447 52.933 179.083 53.925 C 179.657 54.821,180.688 56.503,186.988 66.833 C 188.022 68.529,188.944 70.010,189.038 70.125 C 189.209 70.336,194.000 70.446,194.000 70.240 C 194.000 70.188,193.048 68.594,191.885 66.698 C 190.721 64.802,188.977 61.956,188.010 60.374 C 187.042 58.792,185.106 55.628,183.707 53.344 C 182.309 51.059,181.122 49.079,181.071 48.944 C 181.016 48.801,181.770 47.418,182.873 45.641 C 184.873 42.417,185.538 41.336,187.396 38.294 C 188.026 37.261,189.124 35.479,189.835 34.333 C 190.547 33.188,191.587 31.511,192.148 30.608 C 192.708 29.704,193.167 28.898,193.167 28.816 C 193.167 28.734,192.095 28.667,190.785 28.667 L 188.403 28.667 187.306 30.458 C 186.702 31.444,185.327 33.675,184.249 35.417 C 183.172 37.158,181.507 39.858,180.551 41.417 C 179.594 42.975,178.718 44.346,178.603 44.463 C 178.436 44.634,178.108 44.211,176.924 42.296 C 176.114 40.988,175.032 39.243,174.518 38.421 C 174.004 37.598,173.508 36.797,173.417 36.641 C 172.268 34.688,168.870 29.161,168.667 28.917 C 168.457 28.664,164.029 28.526,163.790 28.765 M227.591 30.542 C 225.416 35.145,222.928 40.433,221.305 43.903 C 220.666 45.270,219.623 47.473,218.988 48.798 C 218.353 50.123,217.833 51.236,217.833 51.271 C 217.833 51.305,217.196 52.652,216.417 54.264 C 215.637 55.877,215.000 57.221,215.000 57.252 C 215.000 57.282,214.225 58.945,213.278 60.945 C 212.331 62.946,211.400 64.921,211.209 65.333 C 211.018 65.746,210.443 66.964,209.931 68.040 C 209.419 69.117,209.000 70.075,209.000 70.170 C 209.000 70.283,209.791 70.327,211.291 70.296 L 213.582 70.250 214.000 69.417 C 214.230 68.958,214.748 67.871,215.151 67.000 C 215.553 66.129,216.222 64.704,216.636 63.833 C 217.050 62.962,217.968 61.012,218.678 59.500 L 219.967 56.750 228.912 56.707 L 237.856 56.664 238.945 58.957 C 239.543 60.218,240.356 61.925,240.751 62.750 C 242.916 67.277,243.576 68.667,243.934 69.458 L 244.329 70.333 246.581 70.333 C 247.820 70.333,248.833 70.294,248.833 70.246 C 248.833 70.199,248.525 69.505,248.148 68.705 C 247.772 67.905,247.070 66.387,246.590 65.333 C 246.109 64.279,245.413 62.779,245.043 62.000 C 244.673 61.221,243.993 59.758,243.533 58.750 C 243.073 57.742,242.270 56.017,241.747 54.917 C 241.225 53.817,240.475 52.204,240.081 51.333 C 239.688 50.462,238.908 48.787,238.349 47.610 C 237.791 46.434,237.333 45.447,237.333 45.419 C 237.333 45.391,236.913 44.479,236.398 43.392 C 235.884 42.306,234.805 39.992,234.000 38.250 C 233.195 36.508,232.240 34.446,231.877 33.667 C 231.514 32.887,230.927 31.613,230.573 30.833 C 229.217 27.851,228.878 27.818,227.591 30.542 M267.111 28.778 C 267.050 28.839,267.000 38.214,267.000 49.611 L 267.000 70.333 273.708 70.332 C 277.600 70.331,280.871 70.257,281.500 70.155 C 293.418 68.225,295.848 52.815,284.959 48.223 C 284.206 47.905,283.565 47.620,283.534 47.590 C 283.504 47.559,284.033 47.118,284.710 46.608 C 290.906 41.945,289.282 31.931,281.938 29.510 C 279.777 28.798,267.688 28.201,267.111 28.778 M311.500 49.500 L 311.500 70.333 321.583 70.333 L 331.667 70.333 331.667 68.252 L 331.667 66.170 323.708 66.127 L 315.750 66.083 315.708 47.375 L 315.665 28.667 313.583 28.667 L 311.500 28.667 311.500 49.500 M349.910 28.875 C 349.867 28.990,349.850 38.346,349.874 49.667 L 349.917 70.250 361.708 70.293 L 373.500 70.336 373.500 68.251 L 373.500 66.167 363.833 66.167 L 354.167 66.167 354.167 58.083 L 354.167 50.000 363.833 50.000 L 373.500 50.000 373.500 47.917 L 373.500 45.833 363.831 45.833 L 354.163 45.833 354.206 39.375 L 354.250 32.917 363.958 32.874 L 373.667 32.831 373.667 30.749 L 373.667 28.667 361.828 28.667 C 352.511 28.667,349.973 28.711,349.910 28.875 M277.000 32.993 C 282.266 33.365,284.898 36.054,284.017 40.162 C 283.158 44.165,280.407 45.791,274.208 45.959 L 271.167 46.041 271.167 39.548 C 271.167 35.977,271.217 33.006,271.278 32.944 C 271.432 32.790,274.500 32.816,277.000 32.993 M229.669 39.042 C 229.972 39.706,230.613 41.075,231.093 42.083 C 232.037 44.066,234.520 49.338,235.429 51.292 L 235.992 52.500 228.996 52.500 C 225.148 52.500,222.000 52.472,222.000 52.439 C 222.000 52.405,222.364 51.637,222.810 50.731 C 223.255 49.825,224.053 48.146,224.582 47.000 C 225.111 45.854,226.046 43.867,226.660 42.583 C 227.273 41.300,228.024 39.706,228.329 39.042 C 228.633 38.377,228.935 37.833,229.000 37.833 C 229.065 37.833,229.365 38.377,229.669 39.042 M275.833 50.337 C 280.063 50.524,281.498 50.797,283.344 51.767 C 288.817 54.643,288.859 62.184,283.417 64.960 C 281.667 65.852,280.616 66.010,275.708 66.116 L 271.167 66.215 271.167 58.302 C 271.167 53.950,271.217 50.339,271.278 50.278 C 271.417 50.139,271.327 50.138,275.833 50.337 M47.000 71.609 C 16.550 72.503,5.428 80.767,25.250 87.770 C 30.764 89.718,39.688 91.398,47.667 91.990 C 55.487 92.570,64.375 92.296,71.917 91.240 C 77.803 90.416,84.492 88.860,88.000 87.498 C 88.504 87.302,89.117 87.079,89.363 87.003 C 91.549 86.321,95.516 83.811,96.366 82.572 C 100.305 76.824,89.262 72.700,67.167 71.668 C 60.221 71.344,59.011 71.523,65.083 71.977 C 66.458 72.080,68.221 72.236,69.000 72.323 C 69.779 72.411,70.904 72.527,71.500 72.581 C 83.716 73.696,94.894 77.111,95.606 79.946 C 96.170 82.194,90.576 85.303,82.167 87.416 C 62.669 92.314,34.590 90.819,21.083 84.163 C 15.886 81.602,15.584 79.543,20.082 77.337 C 24.220 75.307,33.000 73.311,41.000 72.581 C 41.596 72.527,42.721 72.411,43.500 72.323 C 44.279 72.236,46.042 72.080,47.417 71.978 C 52.635 71.589,52.476 71.449,47.000 71.609 M44.750 74.426 C 31.995 75.286,25.386 78.199,28.001 81.808 C 33.161 88.931,69.571 90.274,82.000 83.800 C 90.624 79.307,80.276 74.206,62.468 74.170 C 60.014 74.165,60.065 74.425,62.545 74.566 C 64.566 74.680,65.400 74.771,68.917 75.265 C 78.837 76.657,84.739 79.046,83.174 81.037 C 81.661 82.959,75.084 84.678,65.333 85.699 C 52.416 87.051,33.066 84.613,29.542 81.190 C 27.478 79.185,33.363 76.702,43.583 75.264 C 46.852 74.804,48.050 74.671,50.000 74.551 C 51.285 74.472,51.752 74.395,51.417 74.319 C 50.668 74.150,48.289 74.188,44.750 74.426 M47.750 77.506 C 43.385 77.981,41.365 79.317,42.103 81.242 C 43.258 84.251,59.684 85.371,67.475 82.971 C 72.064 81.558,71.723 78.944,66.803 77.817 C 65.353 77.484,58.070 77.108,58.333 77.379 C 58.379 77.426,59.508 77.624,60.842 77.819 C 65.917 78.560,69.603 79.836,68.811 80.580 C 66.277 82.961,43.583 82.738,43.583 80.332 C 43.583 79.589,47.332 78.444,52.083 77.736 C 53.092 77.586,53.948 77.434,53.986 77.398 C 54.107 77.285,48.966 77.373,47.750 77.506 " stroke="none" fill="#f1f2f1" fill-rule="evenodd"></path><path id="path1" d="M0.000 48.250 L 0.000 96.500 200.000 96.500 L 400.000 96.500 400.000 48.250 L 400.000 0.000 200.000 0.000 L 0.000 0.000 0.000 48.250 M53.750 6.663 C 61.078 7.279,64.333 7.632,64.333 7.812 C 64.333 7.880,63.370 8.512,62.192 9.216 C 61.014 9.920,59.196 11.072,58.150 11.776 C 57.105 12.480,55.688 13.430,55.000 13.886 C 44.238 21.032,38.605 30.941,38.593 42.750 C 38.581 53.810,44.370 61.353,53.816 62.587 L 54.715 62.705 54.607 60.311 C 54.430 56.369,54.304 29.132,54.449 26.173 L 54.583 23.429 55.150 23.048 C 55.814 22.601,56.787 22.548,57.506 22.920 C 58.024 23.188,58.135 23.464,58.206 24.662 L 58.250 25.407 59.801 25.614 C 69.941 26.967,77.020 35.398,77.059 46.167 C 77.094 56.035,68.984 64.499,58.460 65.578 C 57.048 65.722,57.188 65.288,56.993 70.114 C 56.525 81.682,56.584 80.965,56.111 80.784 C 55.735 80.639,55.516 78.262,54.902 67.634 L 54.789 65.685 53.853 65.575 C 38.088 63.714,30.891 46.294,38.501 28.415 C 41.578 21.184,48.914 13.416,56.130 9.746 C 57.851 8.872,58.343 8.500,57.781 8.500 C 57.427 8.500,50.766 6.666,50.631 6.531 C 50.499 6.399,50.717 6.408,53.750 6.663 M55.951 23.937 C 55.548 24.340,55.839 25.500,56.342 25.500 C 56.846 25.500,56.851 25.491,56.801 24.708 C 56.751 23.936,56.333 23.556,55.951 23.937 M55.833 26.572 C 55.833 27.496,55.836 27.500,56.342 27.500 L 56.851 27.500 56.800 26.625 C 56.719 25.220,55.833 25.172,55.833 26.572 M58.156 31.792 C 58.145 37.594,58.033 42.237,57.596 55.000 C 57.456 59.079,57.340 62.481,57.338 62.559 C 57.319 63.156,62.219 61.895,64.640 60.680 C 75.131 55.414,77.152 43.266,69.246 33.000 C 66.690 29.681,61.199 26.176,58.542 26.168 L 58.167 26.167 58.156 31.792 M122.463 30.790 L 122.510 32.830 114.130 32.873 L 105.750 32.917 105.750 39.333 L 105.750 45.750 114.125 45.793 L 122.500 45.836 122.500 47.918 L 122.500 50.000 114.083 50.000 L 105.667 50.000 105.667 60.172 L 105.667 70.344 103.625 70.297 L 101.583 70.250 101.540 49.667 C 101.517 38.346,101.533 28.989,101.577 28.874 C 101.641 28.708,103.822 28.673,112.037 28.707 L 122.417 28.750 122.463 30.790 M144.626 49.542 L 144.668 70.333 142.584 70.333 L 140.500 70.333 140.500 49.611 C 140.500 38.214,140.552 28.837,140.616 28.773 C 140.680 28.709,141.599 28.678,142.658 28.703 L 144.583 28.750 144.626 49.542 M168.667 28.917 C 168.870 29.161,172.268 34.688,173.417 36.641 C 173.508 36.797,174.004 37.598,174.518 38.421 C 175.032 39.243,176.114 40.988,176.924 42.296 C 178.108 44.211,178.436 44.634,178.603 44.463 C 178.718 44.346,179.594 42.975,180.551 41.417 C 181.507 39.858,183.172 37.158,184.249 35.417 C 185.327 33.675,186.702 31.444,187.306 30.458 L 188.403 28.667 190.785 28.667 C 192.095 28.667,193.167 28.734,193.167 28.816 C 193.167 28.898,192.708 29.704,192.148 30.608 C 191.587 31.511,190.547 33.188,189.835 34.333 C 189.124 35.479,188.026 37.261,187.396 38.294 C 185.538 41.336,184.873 42.417,182.873 45.641 C 181.770 47.418,181.016 48.801,181.071 48.944 C 181.122 49.079,182.309 51.059,183.707 53.344 C 185.106 55.628,187.042 58.792,188.010 60.374 C 188.977 61.956,190.721 64.802,191.885 66.698 C 193.048 68.594,194.000 70.188,194.000 70.240 C 194.000 70.446,189.209 70.336,189.038 70.125 C 188.944 70.010,188.022 68.529,186.988 66.833 C 180.688 56.503,179.657 54.821,179.083 53.925 L 178.447 52.933 178.182 53.317 C 178.036 53.529,176.988 55.212,175.852 57.059 C 174.717 58.906,173.117 61.504,172.298 62.833 C 171.478 64.162,170.114 66.375,169.266 67.750 L 167.725 70.250 165.260 70.296 C 163.186 70.335,162.809 70.305,162.885 70.106 C 162.983 69.852,166.019 64.888,167.333 62.833 C 169.293 59.770,175.833 49.008,175.833 48.845 C 175.833 48.686,171.742 41.842,170.744 40.333 C 170.532 40.012,169.580 38.475,168.627 36.917 C 167.675 35.358,166.174 32.909,165.293 31.474 C 164.412 30.038,163.736 28.820,163.790 28.765 C 164.029 28.526,168.457 28.664,168.667 28.917 M229.695 29.042 C 229.824 29.248,230.219 30.054,230.573 30.833 C 230.927 31.613,231.514 32.887,231.877 33.667 C 232.240 34.446,233.195 36.508,234.000 38.250 C 234.805 39.992,235.884 42.306,236.398 43.392 C 236.913 44.479,237.333 45.391,237.333 45.419 C 237.333 45.447,237.791 46.434,238.349 47.610 C 238.908 48.787,239.688 50.462,240.081 51.333 C 240.475 52.204,241.225 53.817,241.747 54.917 C 242.270 56.017,243.073 57.742,243.533 58.750 C 243.993 59.758,244.673 61.221,245.043 62.000 C 245.413 62.779,246.109 64.279,246.590 65.333 C 247.070 66.387,247.772 67.905,248.148 68.705 C 248.525 69.505,248.833 70.199,248.833 70.246 C 248.833 70.294,247.820 70.333,246.581 70.333 L 244.329 70.333 243.934 69.458 C 243.576 68.667,242.916 67.277,240.751 62.750 C 240.356 61.925,239.543 60.218,238.945 58.957 L 237.856 56.664 228.912 56.707 L 219.967 56.750 218.678 59.500 C 217.968 61.012,217.050 62.962,216.636 63.833 C 216.222 64.704,215.553 66.129,215.151 67.000 C 214.748 67.871,214.230 68.958,214.000 69.417 L 213.582 70.250 211.291 70.296 C 209.791 70.327,209.000 70.283,209.000 70.170 C 209.000 70.075,209.419 69.117,209.931 68.040 C 210.443 66.964,211.018 65.746,211.209 65.333 C 211.400 64.921,212.331 62.946,213.278 60.945 C 214.225 58.945,215.000 57.282,215.000 57.252 C 215.000 57.221,215.637 55.877,216.417 54.264 C 217.196 52.652,217.833 51.305,217.833 51.271 C 217.833 51.236,218.353 50.123,218.988 48.798 C 219.623 47.473,220.666 45.270,221.305 43.903 C 222.928 40.433,225.416 35.145,227.591 30.542 C 228.560 28.491,229.109 28.100,229.695 29.042 M279.209 28.920 C 280.148 29.060,281.376 29.325,281.938 29.510 C 289.282 31.931,290.906 41.945,284.710 46.608 C 284.033 47.118,283.504 47.559,283.534 47.590 C 283.565 47.620,284.206 47.905,284.959 48.223 C 295.848 52.815,293.418 68.225,281.500 70.155 C 280.871 70.257,277.600 70.331,273.708 70.332 L 267.000 70.333 267.000 49.611 C 267.000 38.214,267.050 28.839,267.111 28.778 C 267.349 28.540,277.450 28.659,279.209 28.920 M315.708 47.375 L 315.750 66.083 323.708 66.127 L 331.667 66.170 331.667 68.252 L 331.667 70.333 321.583 70.333 L 311.500 70.333 311.500 49.500 L 311.500 28.667 313.583 28.667 L 315.665 28.667 315.708 47.375 M373.667 30.749 L 373.667 32.831 363.958 32.874 L 354.250 32.917 354.206 39.375 L 354.163 45.833 363.831 45.833 L 373.500 45.833 373.500 47.917 L 373.500 50.000 363.833 50.000 L 354.167 50.000 354.167 58.083 L 354.167 66.167 363.833 66.167 L 373.500 66.167 373.500 68.251 L 373.500 70.336 361.708 70.293 L 349.917 70.250 349.874 49.667 C 349.850 38.346,349.867 28.990,349.910 28.875 C 349.973 28.711,352.511 28.667,361.828 28.667 L 373.667 28.667 373.667 30.749 M271.278 32.944 C 271.217 33.006,271.167 35.977,271.167 39.548 L 271.167 46.041 274.208 45.959 C 278.623 45.839,280.492 45.294,282.143 43.643 C 285.526 40.259,284.454 34.837,280.131 33.471 C 278.641 33.000,271.639 32.584,271.278 32.944 M228.329 39.042 C 228.024 39.706,227.273 41.300,226.660 42.583 C 226.046 43.867,225.111 45.854,224.582 47.000 C 224.053 48.146,223.255 49.825,222.810 50.731 C 222.364 51.637,222.000 52.405,222.000 52.439 C 222.000 52.472,225.148 52.500,228.996 52.500 L 235.992 52.500 235.429 51.292 C 234.520 49.338,232.037 44.066,231.093 42.083 C 230.613 41.075,229.972 39.706,229.669 39.042 C 229.365 38.377,229.065 37.833,229.000 37.833 C 228.935 37.833,228.633 38.377,228.329 39.042 M271.278 50.278 C 271.217 50.339,271.167 53.950,271.167 58.302 L 271.167 66.215 275.708 66.116 C 280.616 66.010,281.667 65.852,283.417 64.960 C 288.859 62.184,288.817 54.643,283.344 51.767 C 281.498 50.797,280.063 50.524,275.833 50.337 C 271.327 50.138,271.417 50.139,271.278 50.278 M51.000 71.672 C 50.404 71.738,48.792 71.876,47.417 71.978 C 46.042 72.080,44.279 72.236,43.500 72.323 C 42.721 72.411,41.596 72.527,41.000 72.581 C 33.000 73.311,24.220 75.307,20.082 77.337 C 15.584 79.543,15.886 81.602,21.083 84.163 C 34.590 90.819,62.669 92.314,82.167 87.416 C 90.576 85.303,96.170 82.194,95.606 79.946 C 94.894 77.111,83.716 73.696,71.500 72.581 C 70.904 72.527,69.779 72.411,69.000 72.323 C 68.221 72.236,66.458 72.080,65.083 71.977 C 59.011 71.523,60.221 71.344,67.167 71.668 C 89.262 72.700,100.305 76.824,96.366 82.572 C 95.516 83.811,91.549 86.321,89.363 87.003 C 89.117 87.079,88.504 87.302,88.000 87.498 C 84.492 88.860,77.803 90.416,71.917 91.240 C 60.497 92.838,47.730 92.608,36.750 90.606 C 30.166 89.405,26.630 88.426,22.250 86.589 C 7.409 80.366,17.079 73.261,42.333 71.835 C 47.581 71.538,53.159 71.434,51.000 71.672 M51.417 74.319 C 51.752 74.395,51.285 74.472,50.000 74.551 C 48.050 74.671,46.852 74.804,43.583 75.264 C 33.363 76.702,27.478 79.185,29.542 81.190 C 33.066 84.613,52.416 87.051,65.333 85.699 C 75.084 84.678,81.661 82.959,83.174 81.037 C 84.739 79.046,78.837 76.657,68.917 75.265 C 65.400 74.771,64.566 74.680,62.545 74.566 C 60.065 74.425,60.014 74.165,62.468 74.170 C 71.996 74.189,81.428 75.997,83.927 78.283 C 90.955 84.711,64.820 90.295,42.665 87.098 C 23.871 84.386,22.038 77.183,39.562 74.903 C 43.527 74.387,50.253 74.056,51.417 74.319 M53.986 77.398 C 53.948 77.434,53.092 77.586,52.083 77.736 C 47.332 78.444,43.583 79.589,43.583 80.332 C 43.583 82.738,66.277 82.961,68.811 80.580 C 69.603 79.836,65.917 78.560,60.842 77.819 C 59.508 77.624,58.379 77.426,58.333 77.379 C 58.070 77.108,65.353 77.484,66.803 77.817 C 71.723 78.944,72.064 81.558,67.475 82.971 C 59.684 85.371,43.258 84.251,42.103 81.242 C 41.154 78.768,44.413 77.418,51.486 77.356 C 52.899 77.344,54.024 77.363,53.986 77.398 " stroke="none" fill="#638463" fill-rule="evenodd"></path></g></svg>